# xmcd CD database file
#
# Track frame offsets:
#	150
#	13249
#	22034
#	32312
#	40300
#	54907
#	64297
#	80425
#	102979
#	110570
#	127748
#	139077
#
# Disc length: 1933 seconds
#
# Revision: 0
# Processed by: cddbd v1.5.2PL0 Copyright (c) Steve Scherf et al.
# Submitted via: CDex 1.79
#
DISCID=99078b0c
DTITLE=Pavel Rohlena - Made In Wood
DYEAR=2010
DGENRE=Jazz
TTITLE0=Bring It On Home
TTITLE1=Tell Me You Love Me
TTITLE2=Knocking On Heavens Door
TTITLE3=Can't Buy Me Love
TTITLE4=Thank You
TTITLE5=Still I Love Her
TTITLE6=Gallows Pole
TTITLE7=The Sky Is Crying
TTITLE8=Moondance
TTITLE9=Ramble On
TTITLE10=Born Under A Bad Sign
TTITLE11=Hound Dog
EXTD=YEAR: 2010
EXTT0=
EXTT1=
EXTT2=
EXTT3=
EXTT4=
EXTT5=
EXTT6=
EXTT7=
EXTT8=
EXTT9=
EXTT10=
EXTT11=
PLAYORDER=
